<svg xmlns="http://www.w3.org/2000/svg" viewBox="0 0 1188.21 1178"><defs><style>.cls-1{fill:#fff;}</style></defs><title>White arrow up_1</title><g id="Layer_2" data-name="Layer 2"><g id="Layer_3" data-name="Layer 3"><path class="cls-1" d="M525.07,24.9,24.9,525.07A84.73,84.73,0,0,0,.05,587.34c0,1,0,2,0,3H0c0,.55,0,1.09,0,1.64a84.8,84.8,0,0,0,14.35,48.16A94,94,0,0,0,36,664L525.07,1153.1a85,85,0,0,0,120.21,0h0a85,85,0,0,0,0-120.21L296.14,683.76h798.62a93.45,93.45,0,0,0,93.45-93.45h0a93.45,93.45,0,0,0-93.45-93.45H293.52L645.28,145.1a85,85,0,0,0,0-120.2h0A85,85,0,0,0,525.07,24.9Z"/></g></g></svg>